<svg width="9" height="9" viewBox="0.375 0.375 8.25 8.25" fill="none" xmlns="http://www.w3.org/2000/svg">
<path d="M6.64773 9H2.35227C1.05525 9 0 7.94475 0 6.64773V2.35227C0 1.05525 1.05525 0 2.35227 0H6.64773C7.94475 0 9 1.05525 9 2.35227V6.64773C9 7.94475 7.94475 9 6.64773 9ZM2.35227 1.63636C1.9575 1.63636 1.63636 1.9575 1.63636 2.35227V6.64773C1.63636 7.0425 1.9575 7.36364 2.35227 7.36364H6.64773C7.0425 7.36364 7.36364 7.0425 7.36364 6.64773V2.35227C7.36364 1.9575 7.0425 1.63636 6.64773 1.63636H2.35227Z" fill="#2E2E33"/>
</svg>
