<svg width="9" height="9" viewBox="0.375 0.375 8.25 8.25" fill="none" xmlns="http://www.w3.org/2000/svg">
<path d="M7.67045 4.09091H5.72727V1.32955C5.72727 0.596454 5.13087 0 4.39773 0H1.32955C0.596403 0 0 0.596454 0 1.32955V4.39773C0 5.13082 0.596403 5.72727 1.32955 5.72727H4.09091V7.67045C4.09091 8.40355 4.68731 9 5.42045 9H7.67045C8.4036 9 9 8.40355 9 7.67045V5.42045C9 4.68736 8.4036 4.09091 7.67045 4.09091ZM1.63636 1.63636H4.09091V4.09091H1.63636V1.63636ZM7.36364 7.36364H5.72727V5.72727H7.36364V7.36364Z" fill="#2E2E33"/>
</svg>
